<?xml version="1.0" encoding="UTF-8"?>
<svg id="Capa_1" data-name="Capa 1" xmlns="http://www.w3.org/2000/svg" viewBox="0 0 160 108.23">
  <defs>
    <style>
      .cls-1 {
        fill: #1986e0;
      }

      .cls-2 {
        fill: #10539b;
      }

      .cls-3 {
        fill: #036;
      }
    </style>
  </defs>
  <path class="cls-1" d="M34.17,69.5c.45-3.99,3.58-9.76,5.95-13,10.76-14.69,34.55-20.53,50.88-27.27,13.38-5.52,26.46-11.86,38.42-20.02.69-.22,1.05.45,1.07,1.07.08,3.02-3.48,10.34-5.17,13.02-11.34,17.95-41.1,22.34-59.98,28.96-10,3.51-21.75,8.03-27.77,17.23-1.18,1.8-1.81,4.04-2.82,5.59-.17.25.03.47-.59.34.15-1.89-.21-4.07,0-5.92Z"/>
  <path class="cls-2" d="M128.58,37.85c.87.89-.67,4.36-1.13,5.45-7.11,17.07-20.91,20.23-37.66,22.87-12.95,2.04-35.88,2.44-46.01,10.84-3.13,2.59-3.95,4.9-6.19,7.75-1.2,1.52-1.33-.85-1.33-1.84-.02-16.14,21.51-22.37,33.91-25.85,19.59-5.49,39.54-9.04,57.42-19.43.31-.11.77-.01.99.21Z"/>
  <path class="cls-3" d="M44.14,98.81c-.8,1.37-3.63-3.3-3.97-4.01-2.47-5.19-.2-9.61,3.86-13.08,10.38-8.87,32.65-7.04,45.79-8.15,6.99-.59,13.95-1.79,20.82-3.14.87.02.75,1.1.38,1.71-1.61,2.74-7.93,7.62-10.8,9.2-12.79,7.05-29.13,1.88-42.95,4.16-6.98,1.15-13.02,5.74-13.13,13.31Z"/>
</svg>