<?xml version="1.0" encoding="UTF-8"?>
<svg id="Capa_1" data-name="Capa 1" xmlns="http://www.w3.org/2000/svg" viewBox="0 0 359.97 83.46">
  <defs>
    <style>
      .cls-1 {
        opacity: .97;
      }

      .cls-2 {
        fill: #022b4c;
      }

      .cls-3 {
        fill: #1986e0;
      }

      .cls-4 {
        fill: #10539b;
      }

      .cls-5 {
        fill: #036;
      }
    </style>
  </defs>
  <path class="cls-3" d="M9.41,52.03c.34-3.06,2.74-7.48,4.56-9.96,8.24-11.25,26.46-15.73,38.97-20.89,10.25-4.23,20.27-9.08,29.43-15.34.53-.17.81.34.82.82.06,2.31-2.66,7.92-3.96,9.97-8.68,13.75-31.48,17.11-45.94,22.19-7.66,2.69-16.66,6.15-21.27,13.2-.9,1.38-1.39,3.09-2.16,4.28-.13.2.03.36-.45.26.12-1.45-.16-3.12,0-4.54Z"/>
  <path class="cls-4" d="M81.72,27.79c.66.68-.51,3.34-.86,4.18-5.45,13.07-16.01,15.5-28.85,17.51-9.92,1.56-27.48,1.87-35.24,8.3-2.39,1.98-3.02,3.75-4.74,5.94-.92,1.17-1.02-.65-1.02-1.41-.02-12.36,16.48-17.14,25.97-19.8,15-4.21,30.29-6.93,43.98-14.89.24-.08.59,0,.76.16Z"/>
  <path class="cls-5" d="M17.05,74.48c-.62,1.05-2.78-2.53-3.04-3.07-1.89-3.98-.16-7.36,2.95-10.02,7.95-6.79,25.01-5.39,35.08-6.24,5.35-.45,10.69-1.37,15.94-2.41.66.01.57.84.29,1.31-1.24,2.1-6.08,5.84-8.27,7.05-9.8,5.4-22.31,1.44-32.9,3.18-5.35.88-9.98,4.39-10.06,10.2Z"/>
  <g class="cls-1">
    <g>
      <path class="cls-2" d="M95.79,56.43v-28.65h19.44v4.98h-13.56v7.48h12.46v4.87h-12.46v11.33h-5.88Z"/>
      <path class="cls-2" d="M131.28,56.86c-2.58,0-4.88-.59-6.91-1.77-2.03-1.18-3.63-2.87-4.8-5.07-1.17-2.2-1.75-4.83-1.75-7.89s.58-5.74,1.75-7.94,2.77-3.89,4.81-5.07c2.04-1.17,4.34-1.76,6.9-1.76,1.67,0,3.21.24,4.63.71,1.42.47,2.68,1.16,3.78,2.07,1.1.9,2,2,2.7,3.28.71,1.28,1.17,2.72,1.38,4.33h-5.96c-.15-.82-.42-1.55-.79-2.18-.37-.63-.84-1.18-1.39-1.62-.56-.45-1.2-.79-1.91-1.02s-1.49-.35-2.33-.35c-1.56,0-2.92.38-4.06,1.15-1.14.77-2.02,1.87-2.64,3.29-.62,1.42-.93,3.13-.93,5.12s.31,3.71.93,5.12c.62,1.42,1.5,2.5,2.64,3.26,1.14.76,2.49,1.13,4.04,1.13.85,0,1.62-.12,2.33-.35s1.34-.57,1.9-1.01c.56-.44,1.03-.98,1.41-1.62.38-.64.65-1.37.82-2.17h5.96c-.21,1.47-.64,2.84-1.32,4.11s-1.55,2.36-2.64,3.3-2.35,1.66-3.79,2.18c-1.44.52-3.03.78-4.77.78Z"/>
      <path class="cls-2" d="M153.4,27.78v28.65h-5.88v-28.65h5.88ZM157.61,56.43h-7.42v-5.02h7.11c1.9,0,3.47-.35,4.72-1.04s2.19-1.73,2.81-3.12c.62-1.38.93-3.11.93-5.17s-.31-3.78-.93-5.16c-.62-1.38-1.55-2.41-2.8-3.1-1.24-.69-2.8-1.03-4.67-1.03h-7.31v-5.02h7.65c2.88,0,5.37.58,7.45,1.73s3.69,2.8,4.82,4.94c1.13,2.14,1.69,4.69,1.69,7.63s-.56,5.51-1.69,7.65-2.74,3.79-4.84,4.95-4.61,1.74-7.53,1.74Z"/>
      <path class="cls-2" d="M195.01,56.88c-2.38,0-4.44-.37-6.15-1.12s-3.04-1.83-3.97-3.27-1.41-3.18-1.43-5.23h5.71c.04,1.01.3,1.87.8,2.57.49.7,1.17,1.23,2.03,1.6.86.37,1.87.55,3.02.55,1.08,0,2.01-.15,2.81-.45.79-.3,1.42-.73,1.87-1.28.45-.55.67-1.19.67-1.92,0-.64-.19-1.19-.56-1.63-.37-.45-.93-.84-1.67-1.17-.74-.33-1.69-.63-2.83-.88l-3.08-.71c-2.65-.6-4.67-1.55-6.05-2.85-1.38-1.29-2.07-2.97-2.07-5.04,0-1.74.46-3.26,1.38-4.56.92-1.29,2.19-2.3,3.82-3.03,1.63-.72,3.51-1.09,5.63-1.09s4.04.37,5.63,1.1c1.59.73,2.83,1.77,3.71,3.11.88,1.34,1.35,2.92,1.4,4.74h-5.62c-.1-1.27-.61-2.26-1.52-2.98s-2.12-1.08-3.63-1.08c-.97,0-1.83.15-2.56.44s-1.29.7-1.69,1.22c-.4.52-.6,1.12-.6,1.8,0,.64.19,1.18.56,1.62.37.44.92.82,1.63,1.12s1.58.58,2.6.81l2.67.62c1.38.31,2.62.7,3.69,1.16,1.08.47,1.99,1.04,2.73,1.7.74.67,1.31,1.45,1.7,2.34.39.89.59,1.9.59,3.03,0,1.79-.45,3.35-1.35,4.66-.9,1.31-2.19,2.33-3.87,3.04-1.68.71-3.69,1.07-6.02,1.07Z"/>
      <path class="cls-2" d="M212.76,32.94c-.91,0-1.67-.29-2.29-.87s-.92-1.29-.92-2.13.31-1.55.92-2.12,1.37-.86,2.27-.86,1.67.29,2.29.86.92,1.28.92,2.12-.31,1.56-.92,2.13-1.37.87-2.27.87ZM209.91,56.43v-20.84h5.71v20.84h-5.71Z"/>
      <path class="cls-2" d="M228.5,56.9c-1.74,0-3.29-.26-4.65-.78-1.36-.52-2.45-1.27-3.28-2.26-.83-.99-1.33-2.18-1.51-3.58l5.48-.4c.18.92.6,1.63,1.27,2.13.67.5,1.57.75,2.71.75,1.08,0,1.92-.2,2.54-.61.62-.4.92-.93.92-1.57,0-.55-.23-1-.68-1.34s-1.12-.6-2.01-.78l-3.63-.71c-2.01-.41-3.53-1.12-4.56-2.12-1.03-1.01-1.54-2.3-1.54-3.87,0-1.33.36-2.49,1.09-3.46.72-.97,1.74-1.73,3.06-2.26,1.31-.53,2.86-.8,4.64-.8s3.24.26,4.52.78c1.28.52,2.3,1.25,3.05,2.2.75.95,1.2,2.08,1.34,3.38l-5.19.4c-.1-.78-.47-1.43-1.1-1.93-.63-.51-1.46-.76-2.48-.76-.96,0-1.74.2-2.34.61-.6.4-.89.92-.89,1.55,0,.54.21.98.64,1.34s1.09.62,1.97.8l3.85.75c2.06.42,3.59,1.1,4.59,2.02s1.49,2.14,1.49,3.65c0,1.38-.4,2.59-1.19,3.62s-1.89,1.82-3.28,2.39-3,.86-4.82.86Z"/>
      <path class="cls-2" d="M252.66,35.59v4.44h-13.08v-4.44h13.08ZM242.85,30.24h5.69v19.9c0,.69.15,1.18.44,1.47.29.29.81.43,1.54.43.28,0,.63-.01,1.05-.04.42-.03.74-.04.97-.06l.37,4.38c-.47.09-1.02.15-1.64.18-.62.03-1.23.05-1.84.05-2.21,0-3.85-.47-4.94-1.42s-1.63-2.37-1.63-4.27v-20.63Z"/>
      <path class="cls-2" d="M265.04,56.88c-2.12,0-3.95-.45-5.5-1.36-1.55-.9-2.75-2.17-3.6-3.79-.85-1.62-1.27-3.51-1.27-5.66s.43-4.01,1.28-5.63c.85-1.63,2.04-2.9,3.56-3.83,1.52-.92,3.29-1.38,5.3-1.38,1.45,0,2.78.24,4.01.72,1.22.48,2.29,1.18,3.18,2.11.9.92,1.6,2.04,2.1,3.37s.75,2.82.75,4.5v1.56h-18v-3.61h15.23l-2.62.9c0-1.06-.18-1.99-.54-2.77-.36-.78-.88-1.38-1.56-1.81-.68-.42-1.51-.63-2.48-.63s-1.79.21-2.47.64-1.21,1.03-1.59,1.79-.56,1.65-.56,2.66v2.52c0,1.13.2,2.1.6,2.91.4.81.96,1.44,1.7,1.87.74.43,1.61.64,2.61.64.72,0,1.36-.1,1.92-.31.56-.21,1.04-.5,1.43-.88.39-.38.68-.84.86-1.37l5.19.42c-.29,1.27-.88,2.39-1.76,3.36-.88.97-1.98,1.72-3.31,2.26s-2.82.81-4.47.81Z"/>
      <path class="cls-2" d="M278.29,56.43v-20.84h5.4l.13,4.92h-.38c.35-1.22.84-2.21,1.49-2.99s1.41-1.35,2.28-1.73,1.78-.57,2.73-.57c1.55,0,2.86.46,3.91,1.39,1.06.93,1.75,2.28,2.09,4.05h-.63c.28-1.19.77-2.19,1.45-3s1.51-1.42,2.48-1.83,2-.62,3.11-.62c1.31,0,2.47.28,3.5.85,1.03.56,1.84,1.39,2.43,2.48.6,1.09.89,2.41.89,3.96v13.92h-5.71v-12.84c0-1.22-.33-2.13-.99-2.73s-1.47-.9-2.43-.9c-.73,0-1.36.16-1.89.48s-.94.77-1.23,1.34c-.29.57-.43,1.23-.43,1.99v12.67h-5.5v-13.02c0-1.05-.31-1.89-.94-2.52-.63-.63-1.44-.94-2.42-.94-.68,0-1.29.16-1.84.47-.54.31-.98.77-1.3,1.38s-.48,1.33-.48,2.19v12.44h-5.71Z"/>
      <path class="cls-2" d="M319.7,56.8c-1.36,0-2.57-.23-3.63-.69-1.06-.46-1.9-1.15-2.51-2.08-.61-.92-.91-2.07-.91-3.44,0-1.18.21-2.16.64-2.94s1.02-1.41,1.77-1.88c.75-.47,1.61-.84,2.57-1.09.96-.25,1.97-.43,3.02-.53,1.24-.12,2.24-.23,2.98-.35s1.29-.29,1.62-.51.51-.56.51-1.01v-.12c0-.55-.13-1.03-.39-1.42s-.64-.71-1.14-.93c-.5-.22-1.1-.34-1.81-.34s-1.35.11-1.88.34c-.54.22-.97.53-1.3.91-.33.38-.54.83-.64,1.33l-5.31-.38c.21-1.33.71-2.48,1.5-3.44.79-.96,1.85-1.7,3.15-2.21s2.83-.77,4.58-.77c1.28,0,2.47.15,3.56.44,1.09.29,2.04.74,2.84,1.34s1.42,1.34,1.87,2.22.66,1.92.66,3.12v14.08h-5.52v-2.92h-.12c-.36.67-.81,1.25-1.37,1.74-.55.49-1.21.88-1.99,1.14-.78.27-1.69.4-2.74.4ZM321.3,52.82c.91,0,1.7-.17,2.37-.52.67-.35,1.2-.81,1.57-1.4.37-.59.56-1.26.56-2v-2.17c-.17.1-.4.2-.71.29s-.65.18-1.04.26c-.38.08-.79.16-1.2.22-.42.06-.82.13-1.22.19-.67.09-1.27.24-1.8.46-.53.22-.95.51-1.26.88-.31.37-.46.83-.46,1.38,0,.51.13.95.4,1.31.27.36.64.63,1.12.82.48.19,1.03.28,1.66.28Z"/>
      <path class="cls-2" d="M344.32,56.9c-1.74,0-3.29-.26-4.65-.78-1.36-.52-2.45-1.27-3.28-2.26-.83-.99-1.33-2.18-1.51-3.58l5.48-.4c.18.92.6,1.63,1.27,2.13.67.5,1.57.75,2.71.75,1.08,0,1.92-.2,2.54-.61.62-.4.92-.93.92-1.57,0-.55-.23-1-.68-1.34s-1.12-.6-2.01-.78l-3.63-.71c-2.01-.41-3.53-1.12-4.56-2.12-1.03-1.01-1.54-2.3-1.54-3.87,0-1.33.36-2.49,1.09-3.46.72-.97,1.74-1.73,3.06-2.26,1.31-.53,2.86-.8,4.64-.8s3.24.26,4.52.78c1.28.52,2.3,1.25,3.05,2.2.75.95,1.2,2.08,1.34,3.38l-5.19.4c-.1-.78-.47-1.43-1.1-1.93-.63-.51-1.46-.76-2.48-.76-.96,0-1.74.2-2.34.61-.6.4-.89.92-.89,1.55,0,.54.21.98.64,1.34s1.09.62,1.97.8l3.85.75c2.06.42,3.59,1.1,4.59,2.02.99.92,1.49,2.14,1.49,3.65,0,1.38-.4,2.59-1.19,3.62s-1.89,1.82-3.28,2.39c-1.39.57-3,.86-4.82.86Z"/>
    </g>
  </g>
</svg>