<?xml version="1.0" encoding="UTF-8"?>
<svg id="Capa_1" data-name="Capa 1" xmlns="http://www.w3.org/2000/svg" viewBox="0 0 160 164.69">
  <defs>
    <style>
      .cls-1 {
        opacity: .97;
      }

      .cls-2 {
        fill: #fff;
      }
    </style>
  </defs>
  <g>
    <path class="cls-2" d="M34.17,67.65c.45-3.99,3.58-9.76,5.95-13,10.76-14.69,34.55-20.53,50.88-27.27,13.38-5.52,26.46-11.86,38.42-20.02.69-.22,1.05.45,1.07,1.07.08,3.02-3.48,10.34-5.17,13.02-11.34,17.95-41.1,22.34-59.98,28.96-10,3.51-21.75,8.03-27.77,17.23-1.18,1.8-1.81,4.04-2.82,5.59-.17.25.03.47-.59.34.15-1.89-.21-4.07,0-5.92Z"/>
    <path class="cls-2" d="M128.58,36.01c.87.89-.67,4.36-1.13,5.45-7.11,17.07-20.91,20.23-37.66,22.87-12.95,2.04-35.88,2.44-46.01,10.84-3.13,2.59-3.95,4.9-6.19,7.75-1.2,1.52-1.33-.85-1.33-1.84-.02-16.14,21.51-22.37,33.91-25.85,19.59-5.49,39.54-9.04,57.42-19.43.31-.11.77-.01.99.21Z"/>
    <path class="cls-2" d="M44.14,96.97c-.8,1.37-3.63-3.3-3.97-4.01-2.47-5.19-.2-9.61,3.86-13.08,10.38-8.87,32.65-7.04,45.79-8.15,6.99-.59,13.95-1.79,20.82-3.14.87.02.75,1.1.38,1.71-1.61,2.74-7.93,7.62-10.8,9.2-12.79,7.05-29.13,1.88-42.95,4.16-6.98,1.15-13.02,5.74-13.13,13.31Z"/>
  </g>
  <g class="cls-1">
    <path class="cls-2" d="M41.8,138.71v-30.94h20.99v5.38h-14.64v8.08h13.46v5.25h-13.46v12.23h-6.35Z"/>
    <path class="cls-2" d="M80.13,139.17c-2.78,0-5.27-.64-7.46-1.91-2.19-1.27-3.92-3.1-5.18-5.47-1.26-2.37-1.89-5.21-1.89-8.52s.63-6.19,1.89-8.58c1.26-2.38,2.99-4.21,5.19-5.47s4.69-1.9,7.46-1.9c1.8,0,3.47.26,5,.77,1.54.51,2.9,1.26,4.08,2.23s2.16,2.16,2.92,3.54c.76,1.38,1.26,2.94,1.49,4.67h-6.44c-.17-.89-.45-1.67-.85-2.36-.4-.69-.9-1.27-1.5-1.75-.6-.48-1.29-.85-2.07-1.1s-1.61-.37-2.51-.37c-1.69,0-3.15.42-4.38,1.25-1.23.83-2.18,2.01-2.86,3.55s-1.01,3.38-1.01,5.52.33,4,1.01,5.53c.67,1.53,1.62,2.7,2.86,3.52,1.23.82,2.69,1.22,4.36,1.22.91,0,1.75-.12,2.51-.37.76-.25,1.45-.61,2.06-1.09s1.12-1.06,1.53-1.75.7-1.47.88-2.35h6.44c-.22,1.59-.7,3.07-1.42,4.43-.73,1.36-1.68,2.55-2.86,3.56-1.18,1.01-2.54,1.8-4.09,2.36-1.55.56-3.27.84-5.15.84Z"/>
    <path class="cls-2" d="M104.01,107.77v30.94h-6.35v-30.94h6.35ZM108.56,138.71h-8.02v-5.42h7.68c2.05,0,3.75-.37,5.1-1.12,1.35-.75,2.36-1.87,3.03-3.36.67-1.5,1.01-3.36,1.01-5.59s-.34-4.09-1.01-5.58c-.67-1.49-1.68-2.6-3.02-3.34s-3.03-1.11-5.05-1.11h-7.89v-5.42h8.26c3.12,0,5.8.62,8.05,1.87s3.98,3.03,5.2,5.34c1.22,2.31,1.83,5.06,1.83,8.24s-.61,5.95-1.83,8.26c-1.22,2.31-2.96,4.09-5.22,5.35s-4.97,1.88-8.13,1.88Z"/>
  </g>
  <g>
    <path class="cls-2" d="M48.37,156.1c-.8,0-1.52-.12-2.15-.36-.63-.24-1.13-.59-1.51-1.04-.38-.46-.61-1.01-.7-1.65l2.53-.19c.08.43.28.75.59.99.31.23.73.35,1.25.35.5,0,.89-.09,1.17-.28.28-.19.43-.43.43-.72,0-.25-.1-.46-.32-.62-.21-.16-.52-.28-.93-.36l-1.68-.33c-.93-.19-1.63-.52-2.1-.98s-.71-1.06-.71-1.79c0-.62.17-1.15.5-1.6.33-.45.81-.8,1.41-1.04.61-.25,1.32-.37,2.14-.37s1.5.12,2.09.36c.59.24,1.06.58,1.41,1.02.35.44.55.96.62,1.56l-2.4.19c-.05-.36-.22-.66-.51-.89-.29-.23-.67-.35-1.15-.35-.44,0-.8.09-1.08.28s-.41.43-.41.72c0,.25.1.45.3.62.2.16.5.29.91.37l1.78.35c.95.2,1.66.51,2.12.93.46.43.69.99.69,1.69,0,.64-.18,1.2-.55,1.67s-.87.84-1.51,1.11c-.64.26-1.38.39-2.22.39Z"/>
    <path class="cls-2" d="M55.56,145.04c-.42,0-.77-.13-1.06-.4-.28-.27-.43-.59-.43-.99s.14-.72.43-.98.63-.4,1.05-.4.77.13,1.06.4.43.59.43.98-.14.72-.43.99c-.28.27-.63.4-1.05.4ZM54.24,155.89v-9.63h2.64v9.63h-2.64Z"/>
    <path class="cls-2" d="M62.83,156.1c-.81,0-1.52-.12-2.15-.36-.63-.24-1.13-.59-1.51-1.04-.38-.46-.61-1.01-.7-1.65l2.53-.19c.08.43.28.75.59.99.31.23.72.35,1.25.35.5,0,.89-.09,1.17-.28.28-.19.43-.43.43-.72,0-.25-.11-.46-.32-.62-.21-.16-.52-.28-.93-.36l-1.68-.33c-.93-.19-1.63-.52-2.11-.98s-.71-1.06-.71-1.79c0-.62.17-1.15.5-1.6.33-.45.8-.8,1.41-1.04.61-.25,1.32-.37,2.14-.37s1.5.12,2.09.36c.59.24,1.06.58,1.41,1.02.35.44.55.96.62,1.56l-2.4.19c-.05-.36-.22-.66-.51-.89-.29-.23-.67-.35-1.15-.35-.44,0-.8.09-1.08.28s-.41.43-.41.72c0,.25.1.45.3.62.2.16.5.29.91.37l1.78.35c.95.2,1.66.51,2.12.93.46.43.69.99.69,1.69,0,.64-.18,1.2-.55,1.67s-.87.84-1.51,1.11c-.64.26-1.38.39-2.22.39Z"/>
    <path class="cls-2" d="M73.98,146.26v2.05h-6.04v-2.05h6.04ZM69.45,143.79h2.63v9.19c0,.32.07.55.2.68.14.13.37.2.71.2.13,0,.29,0,.48-.02.19-.01.34-.02.45-.03l.17,2.03c-.22.04-.47.07-.76.08s-.57.02-.85.02c-1.02,0-1.78-.22-2.28-.66-.5-.44-.75-1.1-.75-1.97v-9.53Z"/>
    <path class="cls-2" d="M79.7,156.09c-.98,0-1.82-.21-2.54-.63s-1.27-1-1.66-1.75c-.39-.75-.59-1.62-.59-2.62s.2-1.85.59-2.6c.39-.75.94-1.34,1.64-1.77.7-.43,1.52-.64,2.45-.64.67,0,1.29.11,1.85.33.56.22,1.05.55,1.47.97.42.43.74.94.97,1.55.23.61.35,1.3.35,2.08v.72h-8.31v-1.67h7.03l-1.21.42c0-.49-.08-.92-.25-1.28s-.41-.64-.72-.83-.7-.29-1.15-.29-.82.1-1.14.3c-.32.2-.56.47-.73.83-.17.35-.26.76-.26,1.23v1.16c0,.52.09.97.28,1.34.18.38.45.66.79.86.34.2.74.3,1.2.3.33,0,.63-.05.89-.14s.48-.23.66-.41c.18-.18.31-.39.39-.63l2.4.2c-.14.59-.41,1.1-.81,1.55-.41.45-.92.79-1.53,1.04-.61.25-1.3.37-2.07.37Z"/>
    <path class="cls-2" d="M85.82,155.89v-9.63h2.5l.06,2.27h-.18c.16-.56.39-1.02.69-1.38s.65-.62,1.05-.8c.4-.17.82-.26,1.26-.26.72,0,1.32.21,1.81.64.49.43.81,1.05.96,1.87h-.29c.13-.55.35-1.01.67-1.39s.7-.65,1.15-.84.92-.28,1.43-.28c.6,0,1.14.13,1.62.39s.85.64,1.12,1.15c.27.5.41,1.11.41,1.83v6.43h-2.64v-5.93c0-.56-.15-.98-.46-1.26s-.68-.42-1.12-.42c-.34,0-.63.07-.88.22-.25.15-.44.35-.57.62-.13.26-.2.57-.2.92v5.85h-2.54v-6.01c0-.49-.14-.87-.43-1.16-.29-.29-.66-.44-1.12-.44-.31,0-.6.07-.85.22s-.45.36-.6.63c-.15.28-.22.62-.22,1.01v5.75h-2.64Z"/>
    <path class="cls-2" d="M104.95,156.06c-.63,0-1.19-.11-1.68-.32-.49-.21-.88-.53-1.16-.96-.28-.43-.42-.96-.42-1.59,0-.54.1-1,.3-1.36s.47-.65.82-.87c.35-.22.74-.39,1.19-.5.44-.12.91-.2,1.39-.24.58-.05,1.03-.11,1.38-.16s.59-.13.75-.24c.16-.1.24-.26.24-.47v-.05c0-.25-.06-.47-.18-.66s-.3-.33-.53-.43c-.23-.1-.51-.16-.83-.16s-.62.05-.87.16-.45.24-.6.42-.25.38-.3.61l-2.45-.18c.09-.62.33-1.15.69-1.59.37-.44.85-.79,1.46-1.02.6-.24,1.31-.36,2.11-.36.59,0,1.14.07,1.64.2.5.14.94.34,1.31.62.37.28.66.62.86,1.03.2.41.31.89.31,1.44v6.5h-2.55v-1.35h-.05c-.17.31-.38.58-.63.8-.25.23-.56.4-.92.53-.36.12-.78.19-1.27.19ZM105.69,154.22c.42,0,.79-.08,1.1-.24.31-.16.55-.38.72-.65s.26-.58.26-.92v-1c-.08.05-.19.09-.33.13-.14.04-.3.08-.48.12-.18.04-.36.07-.55.1-.19.03-.38.06-.56.09-.31.04-.58.11-.83.21-.25.1-.44.24-.58.41-.14.17-.21.38-.21.64,0,.24.06.44.19.6s.3.29.52.38c.22.09.48.13.77.13Z"/>
    <path class="cls-2" d="M116.32,156.1c-.8,0-1.52-.12-2.15-.36-.63-.24-1.13-.59-1.51-1.04-.38-.46-.61-1.01-.7-1.65l2.53-.19c.08.43.28.75.59.99.31.23.73.35,1.25.35.5,0,.89-.09,1.17-.28.28-.19.43-.43.43-.72,0-.25-.11-.46-.32-.62-.21-.16-.52-.28-.93-.36l-1.68-.33c-.93-.19-1.63-.52-2.11-.98s-.71-1.06-.71-1.79c0-.62.17-1.15.5-1.6.33-.45.81-.8,1.41-1.04.61-.25,1.32-.37,2.15-.37s1.5.12,2.09.36c.59.24,1.06.58,1.41,1.02.35.44.55.96.62,1.56l-2.4.19c-.05-.36-.22-.66-.51-.89-.29-.23-.67-.35-1.15-.35-.44,0-.8.09-1.08.28s-.41.43-.41.72c0,.25.1.45.3.62.2.16.5.29.91.37l1.78.35c.95.2,1.66.51,2.12.93.46.43.69.99.69,1.69,0,.64-.18,1.2-.55,1.67s-.87.84-1.51,1.11c-.64.26-1.38.39-2.23.39Z"/>
  </g>
</svg>