<?xml version="1.0" encoding="utf-8"?>
<!-- Generator: Adobe Illustrator 16.0.0, SVG Export Plug-In . SVG Version: 6.00 Build 0)  -->
<!DOCTYPE svg PUBLIC "-//W3C//DTD SVG 1.1//EN" "http://www.w3.org/Graphics/SVG/1.1/DTD/svg11.dtd">
<svg version="1.1" id="Capa_1" xmlns="http://www.w3.org/2000/svg" xmlns:xlink="http://www.w3.org/1999/xlink" x="0px" y="0px"
	 width="260px" height="60px" viewBox="0 0 260 60" enable-background="new 0 0 260 60" xml:space="preserve">
<g>
	<path fill="#244E9C" d="M1.25,31.57l12.522-0.786c0.271,2.034,0.82,3.586,1.656,4.646c1.353,1.727,3.289,2.588,5.809,2.588
		c1.875,0,3.325-0.438,4.344-1.313c1.016-0.887,1.526-1.907,1.526-3.063c0-1.104-0.486-2.098-1.453-2.965
		c-0.97-0.875-3.218-1.697-6.741-2.47c-5.769-1.3-9.889-3.025-12.347-5.177c-2.479-2.15-3.722-4.887-3.722-8.221
		c0-2.188,0.638-4.255,1.907-6.199c1.27-1.947,3.174-3.481,5.723-4.592C13.02,2.9,16.512,2.343,20.95,2.343
		c5.441,0,9.59,1.012,12.448,3.036c2.856,2.026,4.556,5.245,5.097,9.659L26.09,15.766c-0.331-1.917-1.021-3.313-2.076-4.186
		c-1.057-0.871-2.514-1.308-4.375-1.308c-1.529,0-2.683,0.327-3.456,0.974c-0.775,0.65-1.163,1.438-1.163,2.369
		c0,0.682,0.32,1.288,0.961,1.83c0.618,0.561,2.091,1.084,4.414,1.569c5.752,1.241,9.876,2.495,12.362,3.761
		c2.492,1.271,4.304,2.846,5.433,4.725c1.133,1.876,1.702,3.978,1.702,6.303c0,2.732-0.756,5.25-2.266,7.557
		c-1.511,2.311-3.623,4.056-6.334,5.244c-2.712,1.188-6.128,1.787-10.255,1.787c-7.244,0-12.258-1.396-15.048-4.186
		C3.193,39.415,1.615,35.868,1.25,31.57z"/>
	<path fill="#244E9C" d="M45.889,3.068H81.16v9.095H59.077v6.769h20.484v8.688H59.077v8.396H81.8v9.646H45.89L45.889,3.068
		L45.889,3.068z"/>
	<path fill="#244E9C" d="M88.467,45.658V3.066h21.935c4.07,0,7.176,0.35,9.326,1.047c2.152,0.697,3.884,1.99,5.203,3.879
		c1.314,1.888,1.973,4.188,1.973,6.898c0,2.363-0.502,4.401-1.512,6.117c-1.007,1.717-2.389,3.104-4.152,4.169
		c-1.126,0.679-2.668,1.241-4.625,1.686c1.566,0.522,2.709,1.048,3.426,1.571c0.484,0.347,1.186,1.094,2.105,2.237
		c0.92,1.148,1.533,2.027,1.842,2.648l6.371,12.338h-14.867l-7.033-13.016c-0.893-1.688-1.686-2.785-2.385-3.286
		c-0.949-0.658-2.025-0.99-3.227-0.99h-1.16V45.65L88.467,45.658L88.467,45.658z M101.686,20.327h5.549
		c0.6,0,1.764-0.194,3.487-0.581c0.872-0.176,1.583-0.62,2.134-1.338c0.55-0.717,0.828-1.539,0.828-2.469
		c0-1.376-0.435-2.43-1.307-3.166c-0.873-0.736-2.508-1.105-4.911-1.105h-5.781L101.686,20.327L101.686,20.327z"/>
</g>
<g>
	<path fill="#C7C8C6" d="M136.277,38.648l6.178-0.385c0.137,1,0.408,1.768,0.816,2.283c0.67,0.854,1.625,1.279,2.869,1.279
		c0.926,0,1.643-0.221,2.144-0.646c0.5-0.439,0.754-0.941,0.754-1.517c0-0.548-0.238-1.034-0.72-1.468
		c-0.479-0.43-1.584-0.836-3.324-1.223c-2.85-0.638-4.881-1.49-6.092-2.551c-1.229-1.063-1.836-2.412-1.836-4.058
		c0-1.081,0.313-2.1,0.938-3.06c0.625-0.961,1.564-1.715,2.82-2.266c1.261-0.549,2.984-0.822,5.173-0.822
		c2.688,0,4.731,0.498,6.144,1.496c1.41,1.002,2.248,2.59,2.52,4.767l-6.123,0.355c-0.159-0.943-0.499-1.63-1.021-2.061
		c-0.521-0.432-1.238-0.646-2.158-0.646c-0.754,0-1.316,0.161-1.698,0.482c-0.388,0.32-0.573,0.709-0.573,1.166
		c0,0.333,0.154,0.637,0.473,0.901c0.309,0.278,1.03,0.534,2.182,0.771c2.837,0.613,4.873,1.232,6.104,1.857
		c1.231,0.625,2.123,1.4,2.682,2.327c0.56,0.929,0.843,1.968,0.843,3.11c0,1.352-0.375,2.59-1.121,3.729
		c-0.744,1.139-1.782,1.998-3.121,2.586c-1.342,0.59-3.024,0.881-5.063,0.881c-3.572,0-6.053-0.688-7.431-2.063
		C137.238,42.52,136.459,40.77,136.277,38.648z"/>
	<path fill="#C7C8C6" d="M158.303,24.586h17.402v4.485h-10.893v3.339h10.104v4.289h-10.104v4.143h11.211v4.756H158.3L158.303,24.586
		L158.303,24.586z"/>
	<path fill="#C7C8C6" d="M179.314,45.598V24.586h10.815c2.013,0,3.542,0.171,4.604,0.511c1.063,0.349,1.918,0.983,2.564,1.916
		c0.646,0.934,0.979,2.067,0.979,3.403c0,1.166-0.25,2.176-0.744,3.021c-0.498,0.847-1.184,1.526-2.057,2.053
		c-0.553,0.338-1.313,0.617-2.274,0.832c0.771,0.263,1.332,0.521,1.688,0.779c0.241,0.174,0.586,0.539,1.045,1.103
		c0.446,0.565,0.758,1.002,0.902,1.303l3.146,6.091h-7.34l-3.475-6.418c-0.438-0.834-0.824-1.371-1.174-1.619
		c-0.471-0.33-0.998-0.492-1.59-0.492h-0.573v8.529H179.314L179.314,45.598z M185.838,33.102h2.734c0.299,0,0.871-0.095,1.718-0.287
		c0.437-0.088,0.784-0.308,1.06-0.652c0.271-0.355,0.412-0.768,0.412-1.227c0-0.679-0.219-1.199-0.648-1.563
		c-0.428-0.364-1.235-0.545-2.422-0.545h-2.854V33.102L185.838,33.102z"/>
</g>
<g>
	<path fill="#404444" d="M136.329,11.219c0-2.752,0.767-4.896,2.298-6.43c1.537-1.535,3.674-2.302,6.41-2.302
		c2.807,0,4.967,0.753,6.484,2.263c1.52,1.507,2.271,3.618,2.271,6.332c0,1.971-0.331,3.586-0.988,4.849
		c-0.662,1.259-1.623,2.244-2.873,2.944c-1.261,0.701-2.816,1.053-4.688,1.053c-1.901,0-3.478-0.304-4.722-0.91
		c-1.246-0.604-2.265-1.563-3.031-2.874C136.713,14.831,136.329,13.191,136.329,11.219z M141.538,11.24
		c0,1.704,0.319,2.927,0.948,3.67c0.633,0.746,1.494,1.118,2.584,1.118c1.119,0,1.986-0.366,2.597-1.092
		c0.614-0.729,0.925-2.037,0.925-3.923c0-1.588-0.32-2.746-0.961-3.481c-0.643-0.729-1.509-1.099-2.605-1.099
		c-1.053,0-1.896,0.371-2.523,1.117C141.857,8.293,141.538,9.526,141.538,11.24z"/>
	<path fill="#404444" d="M164.029,2.773h4.865l6.352,9.332V2.773h4.913V19.64h-4.913l-6.316-9.26v9.26h-4.896L164.029,2.773
		L164.029,2.773z"/>
	<path fill="#404444" d="M182.727,11.219c0-2.752,0.771-4.896,2.31-6.43c1.526-1.535,3.669-2.302,6.403-2.302
		c2.81,0,4.965,0.753,6.483,2.263c1.521,1.507,2.28,3.618,2.28,6.332c0,1.971-0.331,3.586-0.994,4.849
		c-0.668,1.259-1.625,2.244-2.88,2.944c-1.249,0.701-2.815,1.053-4.688,1.053c-1.896,0-3.477-0.304-4.719-0.91
		c-1.249-0.604-2.262-1.563-3.033-2.874C183.115,14.831,182.727,13.191,182.727,11.219z M187.939,11.24
		c0,1.704,0.313,2.927,0.949,3.67c0.633,0.746,1.488,1.118,2.575,1.118c1.121,0,1.989-0.366,2.604-1.092
		c0.609-0.729,0.922-2.037,0.922-3.923c0-1.588-0.319-2.746-0.967-3.481c-0.643-0.729-1.51-1.099-2.604-1.099
		c-1.05,0-1.896,0.371-2.528,1.117C188.257,8.293,187.939,9.526,187.939,11.24z"/>
</g>
<g>
	<path fill="#244E9C" d="M2.131,57.311v-6.854h1.816l2.159,4.854C6.304,55.76,6.45,56.1,6.541,56.326
		c0.103-0.249,0.266-0.614,0.485-1.102l2.184-4.771h1.624v6.854H9.672v-5.734L7.02,57.311H5.933l-2.638-5.84v5.84H2.131z"/>
	<path fill="#244E9C" d="M16.622,57.311l3.503-6.854h1.302l3.73,6.854h-1.374l-1.065-2.078h-3.815l-0.998,2.078H16.622z
		 M19.253,54.492h3.092l-0.952-1.898c-0.291-0.574-0.508-1.049-0.65-1.422c-0.115,0.443-0.276,0.879-0.489,1.309L19.253,54.492z"/>
	<path fill="#244E9C" d="M30.981,57.311v-6.854h4.043c0.813,0,1.433,0.063,1.856,0.188c0.423,0.117,0.76,0.338,1.014,0.647
		c0.25,0.313,0.377,0.653,0.377,1.036c0,0.48-0.209,0.893-0.628,1.229c-0.417,0.336-1.064,0.545-1.94,0.635
		c0.32,0.117,0.561,0.229,0.729,0.346c0.353,0.24,0.686,0.549,1,0.908l1.586,1.867H37.5l-1.207-1.424
		c-0.352-0.412-0.641-0.729-0.867-0.947c-0.229-0.215-0.436-0.371-0.616-0.459c-0.179-0.084-0.362-0.146-0.549-0.18
		c-0.138-0.021-0.363-0.035-0.672-0.035h-1.4v3.045h-1.208V57.311z M32.188,53.479h2.595c0.551,0,0.985-0.043,1.294-0.127
		c0.31-0.09,0.546-0.224,0.71-0.412c0.161-0.188,0.243-0.396,0.243-0.609c0-0.323-0.157-0.6-0.471-0.809
		c-0.312-0.207-0.807-0.313-1.484-0.313h-2.888L32.188,53.479L32.188,53.479z"/>
	<path fill="#244E9C" d="M44.955,57.311v-6.854h1.208v3.396l4.53-3.396h1.637l-3.827,2.773l3.994,4.08h-1.593l-3.248-3.474
		l-1.493,1.093v2.381H44.955L44.955,57.311z"/>
	<path fill="#244E9C" d="M58.372,57.311v-6.854h6.595v0.811h-5.388v2.104h5.045v0.804h-5.045v2.334h5.597v0.813h-6.804V57.311z"/>
	<path fill="#244E9C" d="M74.006,57.311v-6.049h-3.005v-0.809h7.229v0.809h-3.016v6.049H74.006z"/>
	<path fill="#244E9C" d="M84.518,57.311v-6.854h1.205v6.854H84.518z"/>
	<path fill="#244E9C" d="M92.681,57.311v-6.854h1.239l4.789,5.384v-5.384h1.159v6.854H98.63l-4.792-5.39v5.39H92.681z"/>
	<path fill="#244E9C" d="M111.004,54.618v-0.804l3.862-0.004v2.543c-0.594,0.354-1.203,0.621-1.832,0.803
		c-0.634,0.178-1.281,0.27-1.943,0.27c-0.896,0-1.711-0.145-2.442-0.436c-0.729-0.285-1.285-0.703-1.655-1.25
		c-0.373-0.547-0.563-1.151-0.563-1.825c0-0.672,0.185-1.294,0.559-1.869c0.371-0.579,0.904-1.01,1.601-1.289
		c0.697-0.28,1.497-0.418,2.405-0.418c0.661,0,1.256,0.081,1.793,0.239c0.53,0.162,0.951,0.384,1.252,0.67
		c0.301,0.288,0.533,0.66,0.689,1.124l-1.086,0.224c-0.139-0.35-0.311-0.621-0.514-0.822c-0.204-0.194-0.494-0.354-0.869-0.479
		c-0.377-0.122-0.798-0.182-1.257-0.182c-0.554,0-1.032,0.064-1.433,0.191c-0.402,0.116-0.726,0.282-0.973,0.489
		c-0.247,0.208-0.438,0.438-0.576,0.685c-0.232,0.424-0.35,0.885-0.35,1.381c0,0.609,0.143,1.121,0.424,1.537
		c0.278,0.41,0.688,0.713,1.22,0.912c0.534,0.198,1.104,0.301,1.705,0.301c0.523,0,1.035-0.076,1.531-0.229
		c0.497-0.146,0.874-0.308,1.132-0.483V54.62h-2.68V54.618L111.004,54.618z"/>
	<path fill="#244E9C" d="M129.501,53.969c0-1.136,0.407-2.029,1.222-2.67c0.813-0.645,1.86-0.965,3.146-0.965
		c0.843,0,1.597,0.148,2.277,0.45c0.679,0.303,1.188,0.728,1.543,1.267c0.354,0.537,0.533,1.153,0.533,1.844
		c0,0.691-0.188,1.313-0.563,1.862c-0.371,0.55-0.904,0.968-1.585,1.243c-0.688,0.283-1.424,0.426-2.217,0.426
		c-0.856,0-1.629-0.158-2.303-0.469c-0.678-0.311-1.19-0.736-1.541-1.273C129.676,55.141,129.501,54.57,129.501,53.969z
		 M130.747,53.984c0,0.824,0.296,1.475,0.887,1.947c0.591,0.479,1.329,0.717,2.222,0.717c0.91,0,1.654-0.242,2.242-0.727
		c0.59-0.479,0.883-1.156,0.883-2.04c0-0.563-0.123-1.047-0.375-1.465c-0.252-0.416-0.611-0.733-1.103-0.97
		c-0.481-0.229-1.026-0.346-1.629-0.346c-0.853,0-1.588,0.226-2.203,0.66C131.057,52.217,130.747,52.952,130.747,53.984z"/>
	<path fill="#244E9C" d="M144.607,57.311v-6.854h1.242l4.782,5.384v-5.384h1.156v6.854h-1.231l-4.791-5.39v5.39H144.607z"/>
	<path fill="#244E9C" d="M158.611,57.311v-6.854h1.207V56.5h4.496v0.811H158.611L158.611,57.311z"/>
	<path fill="#244E9C" d="M170.8,57.311v-6.854h1.205v6.854H170.8z"/>
	<path fill="#244E9C" d="M178.96,57.311v-6.854h1.239l4.791,5.384v-5.384h1.158v6.854h-1.239l-4.788-5.39v5.39H178.96z"/>
	<path fill="#244E9C" d="M193.037,57.311v-6.854h6.602v0.811h-5.39v2.104h5.043v0.804h-5.043v2.334h5.599v0.813h-6.811V57.311z"/>
</g>
<g>
	<g>
		<path fill="none" stroke="#244E9C" stroke-width="0.5" stroke-miterlimit="10" d="M208.215,40.654v-1.987l1.816-1.644
			c3.07-2.746,4.563-4.324,4.604-5.967c0-1.146-0.691-2.056-2.313-2.056c-1.211,0-2.27,0.605-3.006,1.169l-0.93-2.357
			c1.061-0.8,2.703-1.448,4.605-1.448c3.178,0,4.93,1.859,4.93,4.411c0,2.355-1.709,4.236-3.74,6.054l-1.298,1.08v0.044h5.298v2.701
			H208.215z"/>
		<path fill="none" stroke="#244E9C" stroke-width="0.5" stroke-miterlimit="10" d="M230.59,33.564c0,4.345-1.751,7.328-5.34,7.328
			c-3.632,0-5.232-3.265-5.255-7.242c0-4.064,1.729-7.286,5.362-7.286C229.119,26.365,230.59,29.717,230.59,33.564z M223.305,33.65
			c-0.021,3.222,0.756,4.756,2.031,4.756s1.969-1.6,1.969-4.799c0-3.113-0.67-4.756-1.99-4.756
			C224.104,28.852,223.281,30.387,223.305,33.65z"/>
		<path fill="none" stroke="#244E9C" stroke-width="0.5" stroke-miterlimit="10" d="M242.588,33.564c0,4.345-1.751,7.328-5.34,7.328
			c-3.633,0-5.232-3.265-5.254-7.242c0-4.064,1.729-7.286,5.361-7.286C241.117,26.365,242.588,29.717,242.588,33.564z
			 M235.303,33.65c-0.021,3.222,0.756,4.756,2.031,4.756s1.969-1.6,1.969-4.799c0-3.113-0.671-4.756-1.99-4.756
			C236.102,28.852,235.279,30.387,235.303,33.65z"/>
		<path fill="none" stroke="#244E9C" stroke-width="0.5" stroke-miterlimit="10" d="M254.283,26.603v2.076l-5.795,11.977h-3.479
			l5.793-11.307v-0.044h-6.443v-2.702H254.283z"/>
	</g>
	<text transform="matrix(1 0 0 1 224.8018 23.1084)" fill="#244E9C" font-family="'MyriadPro-Regular'" font-size="12">desde</text>
</g>
<line fill="none" stroke="#244E9C" stroke-width="0.5" stroke-miterlimit="10" x1="204.834" y1="3.487" x2="204.834" y2="58.311"/>
</svg>
